<?xml version="1.0" encoding="UTF-8" standalone="no"?>
<svg
   xmlns:dc="http://purl.org/dc/elements/1.1/"
   xmlns:cc="http://creativecommons.org/ns#"
   xmlns:rdf="http://www.w3.org/1999/02/22-rdf-syntax-ns#"
   xmlns:svg="http://www.w3.org/2000/svg"
   xmlns="http://www.w3.org/2000/svg"
   id="svg9"
   version="1.1"
   viewBox="0 0 165.45785 165.45786"
   height="165.45786"
   width="165.45786">
  <title
     id="title4181">Quadient Slides Full</title>
  <defs
     id="defs3" />
  <metadata
     id="metadata6">
    <rdf:RDF>
      <cc:Work
         rdf:about="">
        <dc:format>image/svg+xml</dc:format>
        <dc:type
           rdf:resource="http://purl.org/dc/dcmitype/StillImage" />
        <dc:title>Quadient Slides Full</dc:title>
        <dc:creator>
          <cc:Agent>
            <dc:title>trainingcenter@gmc.net</dc:title>
          </cc:Agent>
        </dc:creator>
        <dc:publisher>
          <cc:Agent>
            <dc:title />
          </cc:Agent>
        </dc:publisher>
        <dc:description>Full slide content area 1016×638 px (21.5×13.5 cm @ 120 dpi).</dc:description>
      </cc:Work>
    </rdf:RDF>
  </metadata>
  <g
     transform="translate(120.12459,-344.66666)"
     id="layer1">
    <g
       transform="matrix(1.3333333,0,0,-1.3333333,-1113.4175,957.17331)"
       id="g869">
      <path
         id="path871"
         style="fill:none;stroke:#1a1a18;stroke-width:4;stroke-linecap:butt;stroke-linejoin:miter;stroke-miterlimit:22.92558479;stroke-dasharray:none;stroke-opacity:1"
         d="M 746.9697,457.38 H 867.0631 V 337.2866 H 746.9697 Z" />
      <path
         id="path873"
         style="fill:#1a1a18;fill-opacity:1;fill-rule:nonzero;stroke:none"
         d="m 793.7053,417.8687 v -33.41 c 0,-5.6483 -1.4697,-8.8988 -7.0415,-8.8988 -5.5721,0 -7.0421,3.2497 -7.0421,8.8988 h -10.6793 c 0,-12.304 5.7269,-18.3401 17.7214,-18.3401 11.9948,0 17.7213,5.4944 17.7213,17.7987 v 44.6304 z m 26.6216,0 v -33.41 c 0,-5.6483 1.4698,-8.8988 7.0415,-8.8988 5.5721,0 7.0422,3.2497 7.0422,8.8988 h 10.6795 c 0,-12.304 -5.7274,-18.3401 -17.7217,-18.3401 -11.995,0 -17.721,5.4944 -17.721,17.7987 v 44.6304 z" />
    </g>
  </g>
</svg>
