<?xml version="1.0" encoding="UTF-8" standalone="no"?>
<!-- Created with Inkscape (http://www.inkscape.org/) -->

<svg
   xmlns:dc="http://purl.org/dc/elements/1.1/"
   xmlns:cc="http://creativecommons.org/ns#"
   xmlns:rdf="http://www.w3.org/1999/02/22-rdf-syntax-ns#"
   xmlns:svg="http://www.w3.org/2000/svg"
   xmlns="http://www.w3.org/2000/svg"
   xmlns:sodipodi="http://sodipodi.sourceforge.net/DTD/sodipodi-0.dtd"
   xmlns:inkscape="http://www.inkscape.org/namespaces/inkscape"
   width="310.59839"
   height="90.22773"
   viewBox="0 0 310.59839 90.227729"
   version="1.1"
   id="svg9"
   sodipodi:docname="logo.svg"
   inkscape:version="0.92.4 (5da689c313, 2019-01-14)">
  <title
     id="title4181">Quadient Slides Full</title>
  <defs
     id="defs3" />
  <sodipodi:namedview
     id="base"
     pagecolor="#ffffff"
     bordercolor="#666666"
     borderopacity="1.0"
     inkscape:pageopacity="0.0"
     inkscape:pageshadow="0"
     inkscape:zoom="1.5"
     inkscape:cx="-67.810815"
     inkscape:cy="-2.6719533"
     inkscape:document-units="px"
     inkscape:current-layer="layer1"
     units="px"
     showgrid="false"
     inkscape:window-width="2560"
     inkscape:window-height="1356"
     inkscape:window-x="1912"
     inkscape:window-y="-8"
     inkscape:window-maximized="1"
     fit-margin-top="10"
     fit-margin-right="10"
     fit-margin-left="10"
     fit-margin-bottom="10" />
  <metadata
     id="metadata6">
    <rdf:RDF>
      <cc:Work
         rdf:about="">
        <dc:format>image/svg+xml</dc:format>
        <dc:type
           rdf:resource="http://purl.org/dc/dcmitype/StillImage" />
        <dc:title>Quadient Slides Full</dc:title>
        <dc:creator>
          <cc:Agent>
            <dc:title>trainingcenter@gmc.net</dc:title>
          </cc:Agent>
        </dc:creator>
        <dc:publisher>
          <cc:Agent>
            <dc:title />
          </cc:Agent>
        </dc:publisher>
        <dc:description>Full slide content area 1016×638 px (21.5×13.5 cm @ 120 dpi).</dc:description>
      </cc:Work>
    </rdf:RDF>
  </metadata>
  <g
     inkscape:label="Layer 1"
     inkscape:groupmode="layer"
     id="layer1"
     transform="translate(-345.05198,-303.77177)">
    <g
       id="g875"
       transform="matrix(1.3333333,0,0,-1.3333333,103.77012,882.91269)">
      <path
         d="m 265.5383,413.6131 h -4.7999 v -18.7132 c 0,-2.5393 -0.6611,-4 -3.1652,-4 -2.5044,0 -3.1655,1.4607 -3.1655,4 h -4.7999 c 0,-5.5304 2.5739,-8.2437 7.9654,-8.2437 5.3912,0 7.9651,2.4698 7.9651,8.0002 z"
         style="fill:#1a1a18;fill-opacity:1;fill-rule:nonzero;stroke:none"
         id="path877"
         inkscape:connector-curvature="0" />
      <path
         d="m 279.2083,413.5785 h -4.7653 l -7.4089,-26.7483 h 4.9394 l 1.3912,4.7305 h 6.8522 l 1.3567,-4.7305 h 4.9391 z m -4.661,-17.322 2.2261,9.9131 2.2263,-9.9131 z"
         style="fill:#1a1a18;fill-opacity:1;fill-rule:nonzero;stroke:none"
         id="path879"
         inkscape:connector-curvature="0" />
      <path
         d="m 306.0958,413.5785 h -4.7653 v -6.3306 l 0.5216,-11.3046 -7.8608,17.6352 h -4.7653 v -26.7483 h 4.7653 v 6.8176 l -0.4175,10.1565 7.861,-16.9741 h 4.661 z"
         style="fill:#1a1a18;fill-opacity:1;fill-rule:nonzero;stroke:none"
         id="path881"
         inkscape:connector-curvature="0" />
      <path
         d="m 332.5654,413.6131 h -4.7999 v -18.7132 c 0,-2.5393 -0.661,-4 -3.1651,-4 -2.5044,0 -3.1655,1.4607 -3.1655,4 h -4.7999 c 0,-5.5304 2.5739,-8.2437 7.9654,-8.2437 5.3912,0 7.965,2.4698 7.965,8.0002 z"
         style="fill:#1a1a18;fill-opacity:1;fill-rule:nonzero;stroke:none"
         id="path883"
         inkscape:connector-curvature="0" />
      <path
         d="m 341.9223,413.5785 h -4.835 v -26.7832 h 4.835 z m 2.052,6.3652 h -4.7999 l -1.9825,-4.7305 h 4.1391 z"
         style="fill:#1a1a18;fill-opacity:1;fill-rule:nonzero;stroke:none"
         id="path885"
         inkscape:connector-curvature="0" />
      <path
         d="m 364.2877,386.8302 -5.8782,10.1914 c 3.2346,1.0434 4.6261,3.2 4.6261,7.1654 v 1.3913 c 0,5.6695 -3.0262,8.0348 -9.4958,8.0348 h -6.7481 v -26.7829 h 4.8002 v 9.4263 h 1.7739 l 5.3218,-9.4263 z m -12.7307,13.8436 v 8.522 h 2.0523 c 3.7219,0 4.3826,-1.3218 4.3826,-3.861 v -0.9043 c 0,-2.5393 -0.9739,-3.7567 -4.4521,-3.7567 z"
         style="fill:#1a1a18;fill-opacity:1;fill-rule:nonzero;stroke:none"
         id="path887"
         inkscape:connector-curvature="0" />
      <path
         d="m 367.4529,413.6131 v -26.8178 h 15.8961 v 4.3827 h -11.096 v 7.0611 h 9.0437 v 4.3132 h -9.0437 v 6.887 h 10.609 v 4.1738 z"
         style="fill:#1a1a18;fill-opacity:1;fill-rule:nonzero;stroke:none"
         id="path889"
         inkscape:connector-curvature="0" />
      <path
         d="m 406.4102,386.8302 -9.5306,13.3914 8.7304,13.3915 h -5.6001 l -7.026,-11.2697 h -1.2869 v 11.2697 h -4.8002 v -26.7829 h 4.7653 v 10.7478 h 1.3564 l 7.5481,-10.7478 z"
         style="fill:#1a1a18;fill-opacity:1;fill-rule:nonzero;stroke:none"
         id="path891"
         inkscape:connector-curvature="0" />
      <path
         d="M 188.4614,426.8557 H 241.132 V 374.1849 H 188.4614 Z"
         style="fill:#1a1a18;fill-opacity:1;fill-rule:evenodd;stroke:none"
         id="path893"
         inkscape:connector-curvature="0" />
      <path
         d="m 208.9587,409.5266 v -14.6528 c 0,-2.4772 -0.6446,-3.903 -3.0883,-3.903 -2.4438,0 -3.0884,1.4252 -3.0884,3.903 h -4.6839 c 0,-5.3963 2.5118,-8.0436 7.7723,-8.0436 5.2608,0 7.7723,2.4097 7.7723,7.8061 v 19.574 z m 11.6759,0 v -14.6528 c 0,-2.4772 0.6444,-3.903 3.0881,-3.903 2.444,0 3.0886,1.4252 3.0886,3.903 h 4.684 c 0,-5.3963 -2.5121,-8.0436 -7.7726,-8.0436 -5.2608,0 -7.772,2.4097 -7.772,7.8061 v 19.574 z"
         style="fill:#ffffff;fill-opacity:1;fill-rule:nonzero;stroke:none"
         id="path895"
         inkscape:connector-curvature="0" />
    </g>
  </g>
</svg>
